<?xml version="1.0" encoding="iso-8859-1"?>
<!-- Generator: Adobe Illustrator 19.0.0, SVG Export Plug-In . SVG Version: 6.00 Build 0)  -->
<svg xmlns="http://www.w3.org/2000/svg" xmlns:xlink="http://www.w3.org/1999/xlink" version="1.1" id="Capa_1" x="0px" y="0px" viewBox="0 0 465 465" style="enable-background:new 0 0 465 465;" xml:space="preserve" width="512" height="512">
<g>
	<path style="fill:#FFD608;" d="M232.5,7.5c70.12,0,132.76,32.08,174.02,82.37c-31.93,21.77-52.89,58.43-52.89,99.99v43.09   c0,66.9-54.23,121.13-121.13,121.13s-121.13-54.23-121.13-121.13v-43.09c0-41.56-20.96-78.22-52.89-99.99   C99.74,39.58,162.38,7.5,232.5,7.5z"/>
	<path style="fill:#FFE76D;" d="M406.52,89.87c31.86,38.82,50.98,88.49,50.98,142.63c0,124.26-100.74,225-225,225   s-225-100.74-225-225c0-54.14,19.12-103.81,50.98-142.63c31.93,21.77,52.89,58.43,52.89,99.99v43.09   c0,66.9,54.23,121.13,121.13,121.13s121.13-54.23,121.13-121.13v-43.09C353.63,148.3,374.59,111.64,406.52,89.87z"/>
	<path style="fill:#591200;" d="M396.902,68.098C352.989,24.184,294.603,0,232.5,0S112.011,24.184,68.098,68.098S0,170.397,0,232.5   s24.184,120.489,68.098,164.402S170.397,465,232.5,465s120.489-24.184,164.402-68.098S465,294.603,465,232.5   S440.816,112.011,396.902,68.098z M232.5,450C112.57,450,15,352.43,15,232.5S112.57,15,232.5,15S450,112.57,450,232.5   S352.43,450,232.5,450z"/>
	<path style="fill:#591200;" d="M388.932,104.055c-3.104-2.742-7.844-2.45-10.586,0.654c-20.773,23.507-32.213,53.746-32.213,85.147   v40.487c0,4.142,3.358,7.5,7.5,7.5s7.5-3.358,7.5-7.5v-40.487c0-27.74,10.105-54.451,28.453-75.214   C392.329,111.538,392.036,106.798,388.932,104.055z"/>
	<path style="fill:#591200;" d="M350.415,261.81c-3.953-1.228-8.159,0.979-9.389,4.934c-14.853,47.754-58.466,79.839-108.525,79.839   c-62.657,0-113.633-50.975-113.633-113.632v-43.095c0-32.064-11.868-62.781-33.418-86.491c-2.787-3.066-7.53-3.291-10.595-0.506   c-3.065,2.786-3.292,7.529-0.506,10.595c19.035,20.943,29.519,48.077,29.519,76.402v43.095   c0,70.928,57.705,128.632,128.633,128.632c27.995,0,54.609-8.838,76.967-25.559c21.612-16.162,37.906-39.185,45.881-64.825   C356.579,267.244,354.37,263.04,350.415,261.81z"/>
</g>















</svg>
